<svg xmlns="http://www.w3.org/2000/svg" viewBox="0 0 32 32" width="64" height="64"><rect width="32" height="32" rx="7" fill="#D4A24C"></rect><g fill="white"><circle cx="16" cy="16" r="4.4"></circle><rect x="14.5" y="4" width="3" height="5.5" rx="1"></rect><rect x="14.5" y="22.5" width="3" height="5.5" rx="1"></rect><rect x="14.5" y="4" width="3" height="5.5" rx="1" transform="rotate(60 16 16)"></rect><rect x="14.5" y="4" width="3" height="5.5" rx="1" transform="rotate(120 16 16)"></rect><rect x="14.5" y="4" width="3" height="5.5" rx="1" transform="rotate(180 16 16)"></rect><rect x="14.5" y="4" width="3" height="5.5" rx="1" transform="rotate(240 16 16)"></rect><rect x="14.5" y="4" width="3" height="5.5" rx="1" transform="rotate(300 16 16)"></rect></g><circle cx="16" cy="16" r="2" fill="#D4A24C"></circle></svg>